<svg xmlns="http://www.w3.org/2000/svg" viewBox="0 0 860 280" role="img" aria-label="ClawBooks logo">
  <defs>
    <linearGradient id="docGrad" x1="0" y1="0" x2="1" y2="1">
      <stop offset="0" stop-color="#55d889"/>
      <stop offset="1" stop-color="#37c26f"/>
    </linearGradient>
    <linearGradient id="clawTop" x1="0.08" y1="0.1" x2="0.92" y2="1">
      <stop offset="0" stop-color="#ff7967"/>
      <stop offset="1" stop-color="#ef433f"/>
    </linearGradient>
    <linearGradient id="clawBottom" x1="0.1" y1="0.2" x2="0.9" y2="1">
      <stop offset="0" stop-color="#d71e39"/>
      <stop offset="1" stop-color="#bb1834"/>
    </linearGradient>
    <filter id="softShadow" x="-20%" y="-20%" width="160%" height="160%">
      <feDropShadow dx="0" dy="8" stdDeviation="6" flood-color="#000000" flood-opacity="0.14"/>
    </filter>
  </defs>

  <g transform="translate(18,10)">
    <g filter="url(#softShadow)">
      <rect x="208" y="0" width="248" height="200" rx="22" fill="url(#docGrad)"/>
    </g>
    <rect x="246" y="44" width="150" height="12" rx="6" fill="#91e5b2"/>
    <rect x="246" y="73" width="150" height="12" rx="6" fill="#91e5b2"/>
    <rect x="236" y="102" width="170" height="12" rx="6" fill="#1d9a59" opacity="0.58"/>
    <rect x="236" y="131" width="170" height="12" rx="6" fill="#1d9a59" opacity="0.58"/>
    <rect x="236" y="160" width="170" height="12" rx="6" fill="#1d9a59" opacity="0.58"/>

    <g filter="url(#softShadow)">
      <path
        d="M22 226c0-73 18-130 70-171 43-33 105-35 154-6-30 2-57 13-81 34-25 21-39 48-44 82
           40-24 82-29 124-12-12-40-37-70-74-90-47-25-99-26-159-19-8 8-13 16-16 24H22z"
        fill="url(#clawTop)"
      />
      <path
        d="M84 229c62 4 109-13 150-53 17 37 8 73-29 101-39 29-96 34-169 12 18-22 34-42 48-60z"
        fill="url(#clawBottom)"
      />
      <path d="M36 128c28 16 58 25 90 27" fill="none" stroke="#b61a34" stroke-width="8" stroke-linecap="round" opacity="0.42"/>
      <path d="M30 160c26 15 54 23 83 26" fill="none" stroke="#b61a34" stroke-width="8" stroke-linecap="round" opacity="0.42"/>
      <path d="M30 192c24 13 49 20 74 23" fill="none" stroke="#b61a34" stroke-width="8" stroke-linecap="round" opacity="0.42"/>
    </g>
    <rect x="4" y="228" width="38" height="38" fill="#37c26f"/>
  </g>

  <text x="286" y="256" font-family="Inter, 'Segoe UI', Arial, sans-serif" font-size="96" font-weight="800" fill="#071a2f">Claw</text>
  <text x="503" y="256" font-family="Inter, 'Segoe UI', Arial, sans-serif" font-size="96" font-weight="400" fill="#071a2f">books</text>
</svg>
