<svg xmlns="http://www.w3.org/2000/svg" viewBox="0 0 860 280" role="img" aria-label="ClawBooks logo">
  <defs>
    <linearGradient id="docGrad" x1="0" y1="0" x2="1" y2="1">
      <stop offset="0" stop-color="#41cc79"/>
      <stop offset="1" stop-color="#1fa856"/>
    </linearGradient>
    <linearGradient id="clawGradA" x1="0.15" y1="0.05" x2="0.9" y2="1">
      <stop offset="0" stop-color="#ff6b58"/>
      <stop offset="1" stop-color="#d91f33"/>
    </linearGradient>
    <linearGradient id="clawGradB" x1="0.1" y1="0.1" x2="0.9" y2="1">
      <stop offset="0" stop-color="#ee3945"/>
      <stop offset="1" stop-color="#a50e2c"/>
    </linearGradient>
  </defs>

  <g transform="translate(20,8)">
    <rect x="178" y="8" width="260" height="198" rx="26" fill="url(#docGrad)" transform="skewX(-4)"/>
    <rect x="220" y="48" width="178" height="13" rx="6.5" fill="#1a8f4a" opacity="0.55"/>
    <rect x="220" y="79" width="178" height="13" rx="6.5" fill="#1a8f4a" opacity="0.55"/>
    <rect x="220" y="110" width="178" height="13" rx="6.5" fill="#1a8f4a" opacity="0.55"/>
    <rect x="220" y="141" width="178" height="13" rx="6.5" fill="#1a8f4a" opacity="0.55"/>

    <path
      d="M12 225c2-81 27-146 96-188 42-26 97-26 137-1-26 0-51 8-73 26-21 17-35 41-39 69
         43-27 80-32 108-12-9 41-33 71-73 90-42 22-88 23-138 18-9 11-15 21-18 30H12z"
      fill="url(#clawGradA)"
    />
    <path
      d="M79 236c59 5 103-11 139-50 18 39 6 80-39 110-45 29-99 30-158 2 22-25 41-45 58-62z"
      fill="url(#clawGradB)"
    />
    <path d="M30 126c26 16 56 25 88 27" fill="none" stroke="#b0132e" stroke-width="8" stroke-linecap="round" opacity="0.45"/>
    <path d="M30 159c23 13 48 21 75 24" fill="none" stroke="#b0132e" stroke-width="8" stroke-linecap="round" opacity="0.45"/>
    <path d="M32 192c21 12 45 19 69 22" fill="none" stroke="#b0132e" stroke-width="8" stroke-linecap="round" opacity="0.45"/>
    <rect x="16" y="222" width="34" height="34" fill="#178f4d"/>
  </g>

  <text x="272" y="252" font-family="Inter, 'Segoe UI', Arial, sans-serif" font-size="92" font-weight="800" fill="#071a2f">Claw</text>
  <text x="492" y="252" font-family="Inter, 'Segoe UI', Arial, sans-serif" font-size="92" font-weight="400" fill="#071a2f">books</text>
</svg>
