<svg xmlns="http://www.w3.org/2000/svg" viewBox="0 0 256 256" role="img" aria-label="ClawBooks favicon">
  <defs>
    <linearGradient id="docGrad" x1="0" y1="0" x2="1" y2="1">
      <stop offset="0" stop-color="#4fd48a"/>
      <stop offset="1" stop-color="#37c26f"/>
    </linearGradient>
    <linearGradient id="clawGrad" x1="0.15" y1="0.05" x2="0.9" y2="1">
      <stop offset="0" stop-color="#ff5b45"/>
      <stop offset="1" stop-color="#ba0f25"/>
    </linearGradient>
  </defs>

  <rect x="102" y="20" width="130" height="160" rx="22" fill="url(#docGrad)"/>
  <rect x="130" y="54" width="78" height="14" rx="7" fill="#eef6ef"/>
  <rect x="130" y="86" width="78" height="14" rx="7" fill="#eef6ef"/>
  <rect x="130" y="118" width="78" height="14" rx="7" fill="#eef6ef"/>

  <path
    fill="url(#clawGrad)"
    d="M44 184c3-53 19-95 66-124 28-17 65-17 92 0-18 0-34 5-48 17-14 12-22 27-25 45
       27-17 49-20 66-8-7 26-22 46-46 58-26 14-54 15-85 12-7 7-12 14-14 22H44z"
  />
  <path
    fill="url(#clawGrad)"
    d="M86 190c40 3 68-7 93-34 11 26 4 54-26 73-31 20-67 20-106 1 16-17 29-30 39-40z"
  />
</svg>
